ffmpeg started on 2016-11-26 at 08:05:05
Report written to "Output/NVENCh264/results/ffmpeg/sintelll1000k.log"
Command line:
Tools/ffmpeg/ffmpeg -benchmark -y -i Input/y4m/sintel.y4m -c:v h264_nvenc -preset ll -b:v 1000k -an Output/NVENCh264/encoded/sintelll1000k.mkv
ffmpeg version N-82227-gdb23fde Copyright (c) 2000-2016 the FFmpeg developers
  built with gcc 5.4.0 (Ubuntu 5.4.0-6ubuntu1~16.04.2) 20160609
  configuration: --prefix=/home/jaroslav/ffmpeg_build --pkg-config-flags=--static --extra-cflags=-I/home/jaroslav/ffmpeg_build/include --extra-ldflags=-L/home/jaroslav/ffmpeg_build/lib --bindir=/home/jaroslav/bin --enable-gpl --enable-libass --enable-libfdk-aac --enable-libfreetype --enable-libmp3lame --enable-libopus --enable-libtheora --enable-libvorbis --enable-libvpx --enable-libx264 --enable-libx265 --enable-nvenc --enable-libmfx --enable-libxvid --enable-libgsm --enable-libopencore-amrnb --enable-version3 --enable-nonfree
  libavutil      55. 35.100 / 55. 35.100
  libavcodec     57. 66.101 / 57. 66.101
  libavformat    57. 57.100 / 57. 57.100
  libavdevice    57.  2.100 / 57.  2.100
  libavfilter     6. 66.100 /  6. 66.100
  libswscale      4.  3.100 /  4.  3.100
  libswresample   2.  4.100 /  2.  4.100
  libpostproc    54.  2.100 / 54.  2.100
Input #0, yuv4mpegpipe, from 'Input/y4m/sintel.y4m':
  Duration: 00:00:20.83, start: 0.000000, bitrate: 2057307 kb/s
    Stream #0:0: Video: rawvideo (I420 / 0x30323449), yuv420p(progressive), 4096x1744, SAR 1:1 DAR 256:109, 24 fps, 24 tbr, 24 tbn, 24 tbc
[h264_nvenc @ 0x34db1c0] The variable bitrate rate-control requires the 'qmin' and/or 'qmax' option set.
Output #0, matroska, to 'Output/NVENCh264/encoded/sintelll1000k.mkv':
  Metadata:
    encoder         : Lavf57.57.100
    Stream #0:0: Video: h264 (h264_nvenc) (Main) (H264 / 0x34363248), yuv420p, 4096x1744 [SAR 1:1 DAR 256:109], q=-1--1, 1000 kb/s, 24 fps, 1k tbn, 24 tbc
    Metadata:
      encoder         : Lavc57.66.101 h264_nvenc
    Side data:
      cpb: bitrate max/min/avg: 0/0/1000000 buffer size: 2000000 vbv_delay: -1
Stream mapping:
  Stream #0:0 -> #0:0 (rawvideo (native) -> h264 (h264_nvenc))
Press [q] to stop, [?] for help
frame=   19 fps=0.0 q=0.0 size=       0kB time=00:00:00.00 bitrate=N/A speed=   0x    frame=   40 fps= 39 q=49.0 size=       1kB time=00:00:00.37 bitrate=  15.9kbits/s speed=0.369x    frame=   61 fps= 40 q=49.0 size=       1kB time=00:00:01.25 bitrate=   4.8kbits/s speed=0.818x    frame=   82 fps= 40 q=49.0 size=       1kB time=00:00:02.12 bitrate=   2.8kbits/s speed=1.04x    frame=  103 fps= 40 q=49.0 size=       1kB time=00:00:03.00 bitrate=   2.0kbits/s speed=1.17x    frame=  124 fps= 40 q=49.0 size=       1kB time=00:00:03.87 bitrate=   1.5kbits/s speed=1.26x    frame=  145 fps= 40 q=49.0 size=       1kB time=00:00:04.75 bitrate=   1.3kbits/s speed=1.33x    frame=  166 fps= 41 q=49.0 size=    1287kB time=00:00:05.62 bitrate=1874.7kbits/s speed=1.37x    frame=  167 fps= 25 q=49.0 size=    1287kB time=00:00:05.66 bitrate=1860.8kbits/s speed=0.863x    frame=  168 fps= 17 q=49.0 size=    1287kB time=00:00:05.70 bitrate=1847.5kbits/s speed=0.564x    frame=  169 fps= 13 q=49.0 size=    1287kB time=00:00:05.75 bitrate=1834.0kbits/s speed=0.44x    frame=  190 fps= 14 q=49.0 size=    1287kB time=00:00:06.62 bitrate=1591.8kbits/s speed=0.487x    frame=  211 fps= 15 q=49.0 size=    1287kB time=00:00:07.50 bitrate=1406.1kbits/s speed=0.532x    frame=  232 fps= 16 q=49.0 size=    1287kB time=00:00:08.37 bitrate=1259.2kbits/s speed=0.573x    frame=  253 fps= 17 q=49.0 size=    1287kB time=00:00:09.25 bitrate=1140.1kbits/s speed=0.611x    frame=  274 fps= 18 q=49.0 size=    2551kB time=00:00:10.12 bitrate=2063.8kbits/s speed=0.647x    frame=  295 fps= 18 q=49.0 size=    2551kB time=00:00:11.00 bitrate=1899.6kbits/s speed=0.681x    frame=  316 fps= 19 q=49.0 size=    2763kB time=00:00:11.87 bitrate=1906.1kbits/s speed=0.712x    frame=  337 fps= 20 q=49.0 size=    2763kB time=00:00:12.75 bitrate=1775.3kbits/s speed=0.742x    frame=  358 fps= 20 q=49.0 size=    2763kB time=00:00:13.62 bitrate=1661.3kbits/s speed=0.77x    frame=  379 fps= 21 q=49.0 size=    2763kB time=00:00:14.50 bitrate=1561.0kbits/s speed=0.796x    frame=  400 fps= 21 q=49.0 size=    2763kB time=00:00:15.37 bitrate=1472.2kbits/s speed=0.821x    frame=  421 fps= 22 q=49.0 size=    3377kB time=00:00:16.25 bitrate=1702.5kbits/s speed=0.845x    frame=  442 fps= 22 q=49.0 size=    3377kB time=00:00:17.12 bitrate=1615.5kbits/s speed=0.867x    frame=  463 fps= 23 q=49.0 size=    3569kB time=00:00:18.00 bitrate=1624.4kbits/s speed=0.888x    frame=  484 fps= 23 q=49.0 size=    3569kB time=00:00:18.87 bitrate=1549.1kbits/s speed=0.909x    frame=  500 fps= 24 q=49.0 Lsize=    4009kB time=00:00:20.79 bitrate=1579.5kbits/s speed=0.981x    
video:4005kB audio:0kB subtitle:0kB other streams:0kB global headers:0kB muxing overhead: 0.108804%
bench: utime=0.924s
bench: maxrss=1187972kB
